<?xml version="1.0" encoding="UTF-8" ?>
<!DOCTYPE svg PUBLIC "-//W3C//DTD SVG 1.1//EN" "http://www.w3.org/Graphics/SVG/1.1/DTD/svg11.dtd">
<svg width="1189pt" height="865pt" viewBox="0 0 1189 865" version="1.1" xmlns="http://www.w3.org/2000/svg">
<path fill="#00cbff" stroke="#00cbff" stroke-width="0.09375" opacity="1.00" d=" M 356.4 3.4 C 358.5 1.7 361.1 0.2 363.9 0.8 C 368.0 1.2 370.7 5.1 371.1 8.9 C 376.9 42.4 382.9 75.7 388.7 109.2 C 390.2 115.0 384.0 120.8 378.2 118.8 C 364.3 113.6 350.4 108.2 336.4 102.8 C 324.8 136.7 316.7 172.1 316.5 208.0 C 316.0 238.7 321.7 269.5 333.0 298.0 C 344.3 326.9 361.1 353.2 379.9 377.8 C 394.1 369.5 411.6 367.0 427.5 371.3 C 443.4 375.4 457.4 386.2 465.5 400.5 C 473.5 414.3 475.7 431.3 471.7 446.8 C 467.9 461.7 458.3 475.0 445.4 483.3 C 432.4 491.9 416.1 495.1 400.8 492.3 C 388.2 490.1 376.2 483.9 367.3 474.7 C 353.5 460.9 347.1 440.4 350.4 421.2 C 352.3 409.3 357.9 398.1 365.9 389.1 C 350.0 370.7 333.0 353.2 313.7 338.3 C 289.4 319.2 261.5 304.6 231.7 296.3 C 191.0 284.6 147.8 284.3 106.0 289.4 C 108.2 303.4 110.4 317.4 112.7 331.4 C 113.3 334.3 113.0 337.6 110.9 339.8 C 108.4 342.8 103.8 343.2 100.5 341.6 C 68.9 328.8 37.2 316.1 5.7 303.3 C 0.0 301.3 -1.4 293.0 3.4 289.4 C 29.8 267.1 56.3 244.9 82.8 222.8 C 87.3 218.8 95.4 221.5 96.1 227.6 C 98.7 242.3 100.8 257.1 103.3 271.8 C 127.1 269.0 151.1 267.8 175.1 269.4 C 207.4 271.4 239.6 278.6 269.3 291.8 C 289.7 300.6 308.6 312.6 326.3 326.0 C 313.4 298.6 304.1 269.3 300.9 239.1 C 295.3 190.9 304.0 142.2 319.7 96.7 C 305.9 90.7 291.6 85.9 277.7 80.2 C 272.2 78.0 271.3 69.6 276.2 66.2 C 302.9 45.2 329.7 24.4 356.4 3.4 M 297.8 70.3 C 321.9 79.5 345.9 88.8 369.9 97.9 C 365.5 73.3 361.3 48.7 356.9 24.0 C 337.2 39.5 317.5 54.8 297.8 70.3 M 24.7 293.1 C 47.8 302.5 71.1 311.8 94.2 321.2 C 90.2 295.7 86.2 270.3 82.2 244.9 C 63.0 261.0 43.8 277.0 24.7 293.1 M 403.4 380.5 C 388.8 382.2 375.0 390.7 367.2 403.2 C 360.2 413.6 358.1 426.8 359.8 439.0 C 361.6 452.9 369.9 465.8 381.6 473.4 C 394.2 482.0 410.6 484.0 425.2 480.2 C 437.1 477.2 447.3 469.2 454.2 459.2 C 467.1 439.4 464.6 410.3 446.8 394.2 C 435.7 382.9 418.9 378.4 403.4 380.5 Z" />
<path fill="#00cbff" stroke="#00cbff" stroke-width="0.09375" opacity="1.00" d=" M 346.4 44.5 C 350.7 43.1 353.9 49.6 350.2 52.1 C 342.2 58.6 333.8 64.4 325.7 70.7 C 324.0 71.9 322.3 73.6 320.1 73.3 C 316.8 73.2 314.9 68.6 317.2 66.3 C 320.7 62.9 324.8 60.5 328.5 57.5 C 334.5 53.2 340.0 48.1 346.4 44.5 Z" />
<path fill="#00cbff" stroke="#00cbff" stroke-width="0.09375" opacity="1.00" d=" M 73.6 263.4 C 76.0 261.3 79.9 263.1 80.4 266.1 C 81.1 268.7 78.8 270.6 77.0 272.1 C 69.3 278.7 61.7 285.4 54.0 292.1 C 51.7 294.5 47.0 293.3 46.5 289.9 C 45.8 287.0 48.6 285.1 50.4 283.4 C 58.2 276.8 65.7 269.9 73.6 263.4 Z" />
<path fill="#1b96fe" stroke="#1b96fe" stroke-width="0.09375" opacity="1.00" d=" M 723.9 386.8 C 735.7 375.9 751.9 369.9 768.0 370.7 C 785.0 371.3 801.7 379.2 812.8 392.2 C 822.9 403.8 828.3 419.4 827.7 434.8 C 827.2 450.2 820.7 465.1 810.0 476.3 C 829.4 501.2 851.8 524.1 877.6 542.4 C 901.0 558.8 927.4 571.0 955.2 578.0 C 991.3 587.3 1029.1 588.4 1066.1 585.1 C 1064.6 572.0 1063.0 559.0 1061.3 545.9 C 1061.0 542.6 1060.0 538.9 1062.0 536.0 C 1064.1 532.2 1069.3 530.9 1073.0 533.0 C 1104.2 546.8 1135.3 560.6 1166.4 574.5 C 1170.0 575.9 1172.5 579.8 1171.7 583.7 C 1171.1 587.8 1167.2 589.9 1164.3 592.3 C 1140.3 610.9 1116.3 629.7 1092.4 648.4 C 1089.9 650.2 1087.6 652.5 1084.6 653.7 C 1080.1 655.6 1074.4 652.1 1073.9 647.2 C 1071.9 632.4 1070.2 617.6 1068.4 602.7 C 1040.0 605.2 1011.3 605.2 983.1 601.1 C 956.3 597.3 930.1 589.8 905.7 578.3 C 884.5 568.3 864.8 555.4 846.9 540.3 C 858.4 566.2 866.2 593.8 869.1 622.0 C 874.4 672.5 863.9 723.4 845.7 770.4 C 858.1 775.7 870.4 781.0 882.8 786.1 C 885.8 787.5 889.6 788.6 891.0 792.0 C 892.9 795.8 891.2 800.5 887.7 802.7 C 860.1 822.8 832.5 842.9 804.9 862.9 C 800.2 866.8 792.3 863.6 791.7 857.6 C 786.8 823.7 782.2 789.7 777.4 755.8 C 776.6 752.0 778.6 747.7 782.4 746.3 C 785.2 745.0 788.2 746.0 790.9 747.1 C 803.7 752.7 816.6 758.0 829.4 763.5 C 839.3 737.7 847.0 711.0 850.7 683.6 C 855.3 651.1 853.8 617.7 845.1 586.0 C 835.4 550.1 816.9 517.2 795.5 487.2 C 781.4 494.9 764.3 496.8 748.8 492.3 C 733.0 488.0 719.2 477.0 711.3 462.7 C 703.3 448.2 701.5 430.3 706.4 414.5 C 709.6 403.9 715.7 394.2 723.9 386.8 M 759.4 382.5 C 740.2 384.5 722.8 398.6 717.1 417.1 C 714.2 426.9 714.1 437.5 716.7 447.4 C 721.4 464.9 736.6 479.0 754.4 482.7 C 768.8 485.8 784.8 483.6 797.0 474.9 C 805.7 468.5 813.2 459.7 816.2 449.2 C 820.1 436.5 819.3 422.4 813.7 410.3 C 810.4 403.3 804.9 397.8 799.2 392.8 C 788.2 383.8 773.3 380.8 759.4 382.5 M 1079.0 553.8 C 1082.1 579.3 1085.3 604.8 1088.4 630.3 C 1108.2 615.1 1127.9 599.7 1147.5 584.3 C 1124.7 574.0 1101.9 563.9 1079.0 553.8 M 795.8 767.3 C 799.1 792.1 802.7 816.8 806.1 841.6 C 826.3 826.8 846.6 812.1 866.8 797.4 C 843.2 787.4 819.5 777.2 795.8 767.3 Z" />
<path fill="#1b96fe" stroke="#1b96fe" stroke-width="0.09375" opacity="1.00" d=" M 279.1 391.1 C 285.6 383.9 295.4 380.5 304.9 380.1 C 318.2 379.5 331.7 383.5 342.2 391.8 C 339.1 395.8 336.7 400.5 333.1 404.0 C 325.4 398.2 315.6 395.2 306.0 395.4 C 301.4 395.5 296.4 396.7 293.0 400.0 C 288.6 404.9 290.0 413.9 296.0 417.0 C 308.5 423.4 323.7 423.3 335.2 431.8 C 341.9 436.1 345.1 444.2 345.0 451.9 C 345.5 459.7 342.5 467.6 336.7 472.8 C 328.6 480.5 316.9 482.7 306.0 481.8 C 292.4 481.1 279.4 475.2 269.3 466.1 C 272.9 462.0 276.0 457.6 279.8 453.7 C 287.3 459.9 296.1 465.2 306.0 466.2 C 312.4 466.9 319.8 466.5 324.7 461.7 C 329.9 456.8 328.5 447.1 321.9 444.1 C 309.9 437.8 295.1 438.2 283.8 430.2 C 278.6 426.8 274.9 421.3 273.9 415.2 C 272.4 406.9 273.5 397.6 279.1 391.1 Z" />
<path fill="#1b96fe" stroke="#1b96fe" stroke-width="0.09375" opacity="1.00" d=" M 403.4 380.5 C 418.9 378.4 435.7 382.9 446.8 394.2 C 464.6 410.3 467.1 439.4 454.2 459.2 C 447.3 469.2 437.1 477.2 425.2 480.2 C 410.6 484.0 394.2 482.0 381.6 473.4 C 369.9 465.8 361.6 452.9 359.8 439.0 C 358.1 426.8 360.2 413.6 367.2 403.2 C 375.0 390.7 388.8 382.2 403.4 380.5 M 405.4 395.6 C 394.3 397.1 384.7 404.9 379.8 414.7 C 376.2 422.2 375.4 430.9 377.0 439.0 C 378.9 448.4 384.9 456.8 393.1 461.9 C 400.7 466.7 410.2 467.8 418.9 465.9 C 428.5 463.8 436.6 456.9 441.2 448.3 C 445.2 441.0 446.1 432.3 444.8 424.2 C 443.1 413.9 436.5 404.7 427.6 399.5 C 420.9 395.7 412.9 394.5 405.4 395.6 Z" />
<path fill="#1b96fe" stroke="#1b96fe" stroke-width="0.09375" opacity="1.00" d=" M 492.3 394.3 C 504.6 382.1 523.2 377.9 539.9 381.0 C 550.7 382.9 560.4 388.9 567.6 396.9 C 564.1 400.6 560.9 404.7 557.1 408.2 C 553.8 405.7 550.9 402.8 547.3 400.8 C 540.2 396.6 531.6 395.8 523.6 396.7 C 513.0 398.0 503.2 404.7 498.2 414.1 C 494.1 421.6 493.4 430.6 495.1 438.9 C 497.1 448.8 504.0 457.5 512.9 462.2 C 520.5 466.2 529.5 466.6 537.7 464.7 C 544.7 463.0 550.4 458.4 555.6 453.7 C 559.0 457.5 562.9 460.8 566.0 464.8 C 559.0 472.8 549.5 478.9 538.9 481.0 C 522.4 484.2 504.1 480.0 492.0 467.9 C 471.8 449.1 472.0 413.1 492.3 394.3 Z" />
<path fill="#00cbff" stroke="#00cbff" stroke-width="0.09375" opacity="1.00" d=" M 759.4 382.5 C 773.3 380.8 788.2 383.8 799.2 392.8 C 804.9 397.8 810.4 403.3 813.7 410.3 C 819.3 422.4 820.1 436.5 816.2 449.2 C 813.2 459.7 805.7 468.5 797.0 474.9 C 784.8 483.6 768.8 485.8 754.4 482.7 C 736.6 479.0 721.4 464.9 716.7 447.4 C 714.1 437.5 714.2 426.9 717.1 417.1 C 722.8 398.6 740.2 384.5 759.4 382.5 M 761.4 397.6 C 750.3 399.0 740.6 406.7 735.6 416.6 C 731.9 424.0 731.1 432.6 732.6 440.6 C 734.4 450.3 740.7 458.8 749.0 464.0 C 756.7 468.7 766.2 469.8 774.9 467.9 C 784.5 465.7 792.7 458.9 797.3 450.3 C 801.4 442.8 802.4 433.7 800.8 425.3 C 798.9 415.4 792.3 406.5 783.6 401.5 C 776.9 397.7 768.9 396.6 761.4 397.6 Z" />
<path fill="#00cbff" stroke="#00cbff" stroke-width="0.09375" opacity="1.00" d=" M 841.7 392.7 C 848.4 385.6 858.3 382.3 867.9 382.0 C 881.0 381.7 894.4 385.6 904.7 393.8 C 901.8 398.0 898.8 402.1 895.9 406.3 C 889.3 401.1 881.1 398.3 872.9 397.5 C 867.6 397.1 862.0 397.5 857.3 400.3 C 851.4 403.8 851.1 413.4 856.3 417.6 C 860.5 420.8 865.7 422.0 870.6 423.5 C 880.9 426.2 892.0 428.5 900.2 435.8 C 907.3 442.0 908.7 452.4 907.0 461.2 C 905.3 470.2 898.2 477.3 889.9 480.8 C 880.5 484.7 870.0 484.6 860.1 482.8 C 849.4 480.7 839.5 475.3 831.4 468.1 C 834.9 464.0 838.1 459.6 841.9 455.8 C 849.0 461.4 857.0 466.4 866.1 467.9 C 873.1 469.0 881.3 469.0 886.9 463.9 C 892.2 459.2 891.2 449.5 884.7 446.3 C 873.7 440.4 860.6 440.4 849.6 434.4 C 843.9 431.4 838.6 426.7 836.8 420.3 C 834.0 411.1 834.9 400.0 841.7 392.7 Z" />
<path fill="#1b96fe" stroke="#1b96fe" stroke-width="0.09375" opacity="1.00" d=" M 586.3 382.6 C 591.8 382.6 597.3 382.6 602.9 382.6 C 602.8 415.4 602.8 448.2 602.9 481.0 C 597.3 481.0 591.8 481.0 586.3 481.0 C 586.3 448.2 586.3 415.4 586.3 382.6 Z" />
<path fill="#00cbff" stroke="#00cbff" stroke-width="0.09375" opacity="1.00" d=" M 1013.2 384.4 C 1036.2 384.4 1059.3 384.4 1082.4 384.4 C 1082.4 389.6 1082.4 394.8 1082.4 400.0 C 1064.9 400.0 1047.3 400.0 1029.8 400.0 C 1029.8 408.7 1029.8 417.5 1029.8 426.2 C 1045.5 426.2 1061.3 426.2 1077.0 426.2 C 1077.0 431.1 1077.0 436.1 1077.0 441.0 C 1061.3 441.0 1045.5 441.0 1029.8 441.0 C 1029.8 449.8 1029.8 458.6 1029.8 467.4 C 1047.9 467.4 1066.0 467.4 1084.1 467.4 C 1084.1 472.6 1084.1 477.8 1084.1 483.0 C 1060.4 483.0 1036.8 483.0 1013.2 483.0 C 1013.2 450.1 1013.2 417.2 1013.2 384.4 Z" />
<path fill="#00cbff" stroke="#00cbff" stroke-width="0.09375" opacity="1.00" d=" M 624.9 385.0 C 637.6 385.0 650.3 384.9 663.0 385.0 C 672.9 385.5 683.5 387.1 691.5 393.5 C 698.7 399.4 701.6 409.0 701.7 418.0 C 702.0 426.9 700.3 436.4 694.1 443.1 C 688.0 449.6 679.0 452.2 670.4 453.3 C 660.8 454.5 651.2 453.8 641.6 454.0 C 641.6 463.7 641.6 473.3 641.6 483.0 C 636.0 483.0 630.5 483.0 624.9 483.0 C 624.9 450.3 624.9 417.6 624.9 385.0 M 641.6 400.0 C 641.6 413.0 641.6 426.0 641.6 439.0 C 651.9 438.6 662.4 440.0 672.5 437.6 C 678.2 436.4 682.6 431.6 683.8 426.0 C 685.1 420.1 685.4 413.3 682.1 407.9 C 678.8 402.8 672.4 401.2 666.8 400.5 C 658.4 399.6 650.0 400.2 641.6 400.0 Z" />
<path fill="#00cbff" stroke="#00cbff" stroke-width="0.09375" opacity="1.00" d=" M 918.9 384.8 C 944.3 384.8 969.8 384.8 995.3 384.8 C 995.3 389.9 995.3 394.9 995.3 400.0 C 985.3 400.0 975.4 400.0 965.4 400.0 C 965.4 427.7 965.4 455.3 965.4 483.0 C 959.9 483.0 954.3 483.0 948.8 483.0 C 948.8 455.3 948.8 427.7 948.8 400.0 C 938.8 400.0 928.8 400.0 918.9 400.0 C 918.9 394.9 918.9 389.9 918.9 384.8 Z" />
<path fill="#00cbff" stroke="#00cbff" stroke-width="0.09375" opacity="1.00" d=" M 1105.4 385.0 C 1119.0 385.0 1132.5 384.9 1146.1 385.0 C 1155.4 385.4 1165.3 386.5 1173.3 391.7 C 1179.6 396.0 1183.0 403.5 1183.8 411.0 C 1184.7 419.9 1183.8 429.8 1178.3 437.2 C 1174.5 442.4 1168.8 445.4 1162.9 447.4 C 1171.4 459.3 1180.0 471.1 1188.6 483.0 C 1181.5 483.0 1174.4 483.0 1167.4 483.0 C 1159.6 471.9 1151.7 461.0 1143.9 450.0 C 1136.6 450.0 1129.3 450.0 1122.0 450.0 C 1122.0 461.0 1122.0 472.0 1122.0 483.0 C 1116.5 483.0 1110.9 483.0 1105.4 483.0 C 1105.4 450.3 1105.4 417.7 1105.4 385.0 M 1122.0 400.0 C 1122.0 411.7 1122.0 423.3 1122.0 435.0 C 1129.7 434.9 1137.4 435.0 1145.1 434.9 C 1150.3 434.7 1155.9 434.3 1160.6 431.6 C 1165.5 428.6 1167.1 422.4 1167.0 417.0 C 1167.1 412.1 1166.0 406.3 1161.6 403.4 C 1156.9 400.6 1151.3 400.3 1146.1 400.0 C 1138.0 399.9 1130.0 400.0 1122.0 400.0 Z" />
<path fill="#00cbff" stroke="#00cbff" stroke-width="0.09375" opacity="1.00" d=" M 393.5 406.4 C 396.0 405.4 399.1 407.3 399.3 410.1 C 399.6 412.6 397.3 414.2 395.8 415.9 C 389.2 422.2 387.5 433.0 391.8 441.1 C 392.9 443.4 394.9 445.4 395.3 448.0 C 395.5 451.4 391.2 453.8 388.5 451.7 C 376.2 439.2 378.6 415.8 393.5 406.4 Z" />
<path fill="#1b96fe" stroke="#1b96fe" stroke-width="0.09375" opacity="1.00" d=" M 785.5 412.4 C 789.7 411.1 791.8 415.7 793.4 418.6 C 800.4 431.8 796.0 449.6 783.7 457.9 C 779.4 460.4 774.8 453.9 778.8 450.8 C 784.6 446.0 788.6 438.7 787.9 431.0 C 787.6 426.5 785.5 422.4 783.1 418.6 C 781.5 416.4 783.1 413.2 785.5 412.4 Z" />
<path fill="#1b96fe" stroke="#1b96fe" stroke-width="0.09375" opacity="1.00" d=" M 1119.5 583.5 C 1123.6 581.1 1127.9 587.4 1124.5 590.4 C 1117.5 596.5 1110.1 602.1 1103.0 608.0 C 1100.4 609.8 1098.3 612.7 1095.0 613.0 C 1091.3 613.0 1089.4 607.6 1092.4 605.3 C 1098.2 600.2 1104.5 595.5 1110.5 590.5 C 1113.5 588.2 1116.2 585.4 1119.5 583.5 Z" />
<path fill="#1b96fe" stroke="#1b96fe" stroke-width="0.09375" opacity="1.00" d=" M 841.5 794.3 C 844.2 792.1 848.7 794.5 848.3 798.0 C 848.4 800.5 846.0 801.9 844.2 803.2 C 835.9 808.9 827.7 814.8 819.4 820.5 C 816.9 822.7 812.4 821.2 812.2 817.8 C 811.4 815.4 813.8 813.7 815.4 812.5 C 824.1 806.5 832.7 800.3 841.5 794.3 Z" />
</svg>
